<svg xmlns="http://www.w3.org/2000/svg" viewBox="0 0 640 380" role="img" aria-label="Demonstração animada do exercício">
<style>
.bg{fill:#141719}.floor{stroke:#343a3d;stroke-width:4}.machine{fill:none;stroke:#8e9a9e;stroke-width:10;stroke-linecap:round;stroke-linejoin:round}.body{fill:none;stroke:#f0d2bd;stroke-width:14;stroke-linecap:round;stroke-linejoin:round}.joint{fill:#f0d2bd}.accent{fill:none;stroke:#d9a574;stroke-width:7;stroke-linecap:round;stroke-dasharray:12 10}.label{fill:#b7c0c3;font:600 19px system-ui}.plate{fill:#4c5559;stroke:#9ba6aa;stroke-width:3}.pad{fill:#353c3f}.motion{transform-box:fill-box;transform-origin:center}.pulse{animation:pulse 1.6s infinite ease-in-out}@keyframes pulse{50%{opacity:.35}}</style>
<rect class="bg" width="640" height="380" rx="28"/><path class="floor" d="M55 330H585"/>
<text class="label" x="34" y="42">Armcurl</text><path class="machine" d="M145 315L175 160H365L395 315M175 160L150 120M365 160L390 120"/><rect class="pad" x="175" y="150" width="190" height="25" rx="10"/><rect class="pad" x="220" y="195" width="120" height="30" rx="10"/><circle class="joint" cx="270" cy="110" r="16"/><path class="body" d="M270 128L270 195M270 160L235 205M270 160L305 205M270 195L230 300M270 195L310 300"/><g class="motion"><path class="body" d="M235 205L210 270M305 205L330 270"/><animateTransform attributeName="transform" type="rotate" values="0 270 205;-48 270 205;0 270 205" dur="2s" repeatCount="indefinite"/></g></svg>