<svg xmlns="http://www.w3.org/2000/svg" viewBox="0 0 640 380" role="img" aria-label="Demonstração animada do exercício">
<style>
.bg{fill:#141719}.floor{stroke:#343a3d;stroke-width:4}.machine{fill:none;stroke:#8e9a9e;stroke-width:10;stroke-linecap:round;stroke-linejoin:round}.body{fill:none;stroke:#f0d2bd;stroke-width:14;stroke-linecap:round;stroke-linejoin:round}.joint{fill:#f0d2bd}.accent{fill:none;stroke:#d9a574;stroke-width:7;stroke-linecap:round;stroke-dasharray:12 10}.label{fill:#b7c0c3;font:600 19px system-ui}.plate{fill:#4c5559;stroke:#9ba6aa;stroke-width:3}.pad{fill:#353c3f}.motion{transform-box:fill-box;transform-origin:center}.pulse{animation:pulse 1.6s infinite ease-in-out}@keyframes pulse{50%{opacity:.35}}</style>
<rect class="bg" width="640" height="380" rx="28"/><path class="floor" d="M55 330H585"/>
<text class="label" x="34" y="42">Curl</text><path class="machine" d="M125 310L165 130L315 130L345 310M165 130L130 95M315 130L350 95M305 220L445 220L480 310"/><rect class="pad" x="165" y="120" width="150" height="26" rx="10"/><g><circle class="joint" cx="235" cy="85" r="16"/><path class="body" d="M235 103L240 185L320 205M240 150L300 155"/><g class="motion"><path class="body" d="M320 205L405 280"/><animateTransform attributeName="transform" type="rotate" values="0 320 205;-52 320 205;0 320 205" dur="2s" repeatCount="indefinite"/></g></g><rect class="plate" x="392" y="258" width="44" height="30" rx="10"/><path class="accent pulse" d="M365 265A65 65 0 0 0 420 210"/></svg>